<svg xmlns="http://www.w3.org/2000/svg" viewBox="0 0 48 48" width="24px" height="24px">
  <linearGradient id="Oy2UNEyvLVk4-XB59ZQBra" x1="13.657" x2="34.886" y1="6.007" y2="42.203" gradientUnits="userSpaceOnUse">
    <stop offset="0" stop-color="#a1aab3" />
    <stop offset="1" stop-color="#8f979e" />
  </linearGradient>
  <path fill="url(#Oy2UNEyvLVk4-XB59ZQBra)" d="M14.5,43.1c-1,0-1.7-0.3-2.2-0.7c-1.4-1-2.3-2.8-2.3-5c-0.1-4.7,2.4-11.5,6.7-18.1 C22.1,11,29,5.2,33.5,5c1,0,1.9,0.2,2.6,0.6c1.9,1.2,2.9,4.1,0.8,7.9c-0.3,0.5-0.9,0.7-1.4,0.4s-0.7-0.9-0.4-1.4 c1.3-2.3,1.2-4.4-0.2-5.2C34.6,7.1,34.2,7,33.6,7c-3.3,0.1-9.6,4.8-15.2,13.4C14.3,26.6,11.9,33,12,37.3c0,1.6,0.5,2.8,1.4,3.4 l0.1,0.1c0.4,0.4,2.2,0.5,4.8-1.6c0.4-0.4,1.1-0.3,1.4,0.1c0.4,0.4,0.3,1.1-0.1,1.4C17.5,42.5,15.8,43.1,14.5,43.1z" />
  <linearGradient id="Oy2UNEyvLVk4-XB59ZQBrb" x1="13.514" x2="34.742" y1="6.091" y2="42.287" gradientUnits="userSpaceOnUse">
    <stop offset="0" stop-color="#a1aab3" />
    <stop offset="1" stop-color="#8f979e" />
  </linearGradient>
  <path fill="url(#Oy2UNEyvLVk4-XB59ZQBrb)" d="M40,31c-0.4,0-0.8-0.2-0.9-0.6 c-0.2-0.5,0.1-1.1,0.6-1.3c2.5-1,4.3-2.6,4.3-4c0.2-2.9-7.2-6.3-19.8-7C23,18,22,18,21,18c-9.9,0-16.9,2.1-17,5.1 c-0.1,1.2,2,3.1,4.4,4c0.5,0.2,0.8,0.8,0.6,1.3S8.2,29.2,7.7,29c-2.9-1.1-5.8-3.5-5.6-6c0.1-4.4,7.2-7,18.9-7c1,0,2.1,0,3.3,0.1 c11,0.6,22,3.6,21.7,9.1c-0.1,2.3-2.3,4.5-5.6,5.8C40.2,31,40.1,31,40,31z" />
  <linearGradient id="Oy2UNEyvLVk4-XB59ZQBrc" x1="13.151" x2="34.379" y1="6.304" y2="42.5" gradientUnits="userSpaceOnUse">
    <stop offset="0" stop-color="#a1aab3" />
    <stop offset="1" stop-color="#8f979e" />
  </linearGradient>
  <path fill="url(#Oy2UNEyvLVk4-XB59ZQBrc)" d="M32.1,44c-0.6,0-1.3-0.1-2-0.4 c-4.5-1.5-10.1-7.9-13.8-15.7C13.8,22.7,12.1,16,12,10.7c-0.1-3.3,0.7-5.4,2.4-6.3c0.5-0.2,1-0.4,1.5-0.4c1.6-0.1,3.5,0.9,5.8,3.3 c0.4,0.4,0.4,1,0,1.4s-1,0.4-1.4,0C17.9,6.3,16.6,6,16.1,6c-0.3,0-0.5,0.1-0.8,0.2c-0.9,0.5-1.4,2-1.3,4.5c0.1,4.1,1.3,10.8,4,16.4 c4.1,8.5,9.4,13.6,12.7,14.7c0.9,0.3,1.7,0.3,2.3,0.1c1.9-1.7,1.2-9.8-2.9-19.4c-0.2-0.5,0-1.1,0.5-1.3c0.5-0.2,1.1,0,1.3,0.5 c3.8,8.8,5.8,19.2,2.2,21.9H34C33.4,43.9,32.8,44,32.1,44z" />
  <linearGradient id="Oy2UNEyvLVk4-XB59ZQBrd" x1="13.501" x2="34.729" y1="6.098" y2="42.294" gradientUnits="userSpaceOnUse">
    <stop offset="0" stop-color="#a1aab3" />
    <stop offset="1" stop-color="#8f979e" />
  </linearGradient>
  <path fill="url(#Oy2UNEyvLVk4-XB59ZQBrd)" d="M27,24c0,1.7-1.3,3-3,3s-3-1.3-3-3 s1.3-3,3-3S27,22.3,27,24z" />
</svg>